<svg width="44" height="44" viewBox="0 0 44 44" fill="none" xmlns="http://www.w3.org/2000/svg">
<circle cx="22" cy="22" r="21.5" stroke="#F3F3F3"/>
<path d="M14.2097 14.3871L14.2929 14.2929C14.6534 13.9324 15.2206 13.9047 15.6129 14.2097L15.7071 14.2929L22 20.585L28.2929 14.2929C28.6834 13.9024 29.3166 13.9024 29.7071 14.2929C30.0976 14.6834 30.0976 15.3166 29.7071 15.7071L23.415 22L29.7071 28.2929C30.0676 28.6534 30.0953 29.2206 29.7903 29.6129L29.7071 29.7071C29.3466 30.0676 28.7794 30.0953 28.3871 29.7903L28.2929 29.7071L22 23.415L15.7071 29.7071C15.3166 30.0976 14.6834 30.0976 14.2929 29.7071C13.9024 29.3166 13.9024 28.6834 14.2929 28.2929L20.585 22L14.2929 15.7071C13.9324 15.3466 13.9047 14.7794 14.2097 14.3871L14.2929 14.2929L14.2097 14.3871Z" fill="#25272D"/>
</svg>
